<svg width="160" height="190" viewBox="0 0 160 190" fill="none" xmlns="http://www.w3.org/2000/svg">
<path d="M159.611 152.701C159.611 156.537 156.793 160.059 151.168 163.253C145.54 166.448 140.551 168.049 136.207 168.049C124.696 168.049 112.801 161.016 100.525 146.947C91.8253 135.185 83.1267 123.289 74.4347 111.264C62.924 124.309 47.1933 150.273 27.2427 189.151C9.07866 185.315 0 177.508 0 165.747C0 157.307 19.0533 130.197 57.1693 84.408C56.4 80.828 50.004 70.5946 37.9853 53.7133C27.2427 38.3653 19.436 28.008 14.58 22.636C19.1853 10.6146 27.368 4.60265 39.136 4.60265C47.828 4.60265 55.8853 11.2586 63.308 24.5533C68.4213 34.7866 73.536 45.0213 78.6547 55.248C109.859 18.4147 128.916 -2.94158e-05 135.824 -2.94158e-05C140.676 -2.94158e-05 144.897 1.79064 148.483 5.37064C152.061 8.95597 153.856 13.0426 153.856 17.648C153.856 22 144.132 33.3173 124.696 51.6026C105.253 69.8933 95.5347 80.444 95.5347 83.256C95.5347 86.3253 103.209 96.8173 118.556 114.719C133.905 132.624 142.728 141.575 145.029 141.575C147.584 141.575 152.447 140.681 159.611 138.889V152.701Z" fill="black"/>
</svg>
